<?xml version="1.0" standalone="no"?>
<!DOCTYPE svg PUBLIC "-//W3C//DTD SVG 20010904//EN"
 "http://www.w3.org/TR/2001/REC-SVG-20010904/DTD/svg10.dtd">
<svg version="1.0" xmlns="http://www.w3.org/2000/svg"
 width="1024.000000pt" height="1024.000000pt" viewBox="0 0 1024.000000 1024.000000"
 preserveAspectRatio="xMidYMid meet">

<g transform="translate(0.000000,1024.000000) scale(0.100000,-0.100000)"
fill="#000000" stroke="none">
<path d="M0 5120 l0 -5120 5120 0 5120 0 0 5120 0 5120 -5120 0 -5120 0 0
-5120z m2831 1430 c39 -22 52 2 -335 -605 -152 -237 -196 -313 -188 -325 8
-13 54 -16 303 -20 l294 -5 3 -25 c2 -21 -24 -57 -124 -175 -69 -83 -143 -171
-163 -197 -20 -26 -42 -49 -49 -52 -12 -5 53 76 208 257 119 141 137 170 108
178 -7 2 -98 2 -203 -1 -104 -4 -151 -7 -102 -8 50 -1 87 -6 87 -12 0 -5 -5
-10 -11 -10 -6 0 -9 -9 -6 -20 3 -11 1 -18 -4 -14 -5 3 -9 13 -9 22 0 23 -18
2 -24 -28 -2 -14 -5 -32 -5 -40 -1 -12 -3 -12 -10 -2 -7 11 -9 11 -14 -2 -4
-9 -11 -16 -17 -16 -6 0 -8 5 -5 10 3 6 2 10 -3 10 -6 0 -13 -7 -16 -16 -3 -8
-2 -12 3 -9 5 3 12 1 16 -5 3 -5 1 -10 -6 -10 -8 0 -8 -5 2 -17 12 -16 12 -16
-7 0 -20 16 -22 16 -28 1 -3 -9 -12 -14 -21 -10 -10 3 -15 -1 -15 -12 0 -14
-2 -15 -10 -2 -8 13 -11 13 -22 1 -11 -11 -11 -13 1 -6 10 6 12 4 7 -4 -5 -7
-14 -10 -22 -7 -8 3 -14 -1 -14 -10 0 -9 -5 -12 -12 -8 -10 6 -10 4 0 -8 10
-13 10 -17 -3 -21 -8 -4 -14 -2 -12 2 1 5 -2 9 -8 9 -5 1 -9 -5 -9 -13 1 -7
-4 -11 -12 -8 -8 3 -14 -1 -14 -10 0 -8 -7 -17 -15 -21 -18 -7 -20 10 -2 18 6
3 1 3 -13 0 -33 -8 -37 -13 -21 -23 8 -6 9 -11 3 -15 -6 -3 -18 2 -28 11 -16
16 -16 16 -10 -5 5 -16 3 -22 -7 -22 -8 0 -27 -10 -43 -22 -15 -13 -25 -17
-21 -11 4 6 3 14 -3 18 -5 3 -10 -3 -10 -15 0 -17 -3 -19 -19 -11 -22 12 -31
5 -31 -22 0 -16 -3 -17 -15 -7 -12 10 -15 10 -15 0 0 -10 -3 -10 -14 -1 -12
10 -14 8 -9 -11 4 -23 4 -23 -12 -3 -17 20 -17 20 -11 -1 6 -20 3 -22 -34 -20
-23 1 -44 -2 -47 -7 -4 -6 -1 -7 8 -2 8 5 10 4 6 0 -10 -12 -38 -15 -32 -4 4
5 -1 6 -9 3 -9 -3 -16 -14 -17 -23 0 -10 -3 -11 -6 -4 -3 10 -10 9 -27 -2 -13
-9 -30 -13 -39 -10 -8 4 -18 1 -23 -6 -6 -10 -9 -8 -13 4 -6 15 -9 15 -34 2
-22 -11 -77 -15 -225 -18 l-197 -2 211 -3 c214 -2 234 -6 234 -41 0 -19 -52
-153 -57 -147 -2 2 7 32 21 67 28 67 31 85 17 93 -4 3 -145 8 -312 11 -167 4
-307 9 -311 11 -4 3 -8 19 -8 35 0 37 234 494 638 1247 43 78 87 155 99 170
l21 27 439 5 c241 3 439 6 441 8 2 1 12 -3 23 -8z m5074 -804 c139 -37 237
-140 252 -267 l6 -49 -109 0 -109 1 -20 42 c-25 52 -70 83 -135 92 -116 16
-200 -36 -200 -124 0 -83 33 -104 250 -161 165 -43 212 -63 261 -112 104 -104
112 -307 18 -438 -86 -119 -302 -171 -510 -124 -152 35 -263 150 -284 297 l-6
48 117 -3 117 -3 11 -33 c37 -109 157 -157 294 -117 69 21 92 52 92 122 0 96
-48 125 -293 183 -119 27 -188 61 -237 117 -114 130 -85 362 59 467 42 30 105
59 156 69 46 10 224 6 270 -7z m-3807 -108 l3 -98 -241 0 -240 0 0 -135 0
-135 210 0 210 0 0 -52 c0 -29 3 -77 6 -105 l7 -53 -217 0 -216 0 0 -220 0
-220 -120 0 -120 0 0 560 0 560 358 -2 357 -3 3 -97z m392 -358 l0 -460 230 0
230 0 0 -100 0 -100 -344 0 -344 0 -1 560 -1 560 115 0 115 0 0 -460z m1274
378 c16 -46 59 -168 97 -273 137 -382 269 -757 269 -761 0 -3 -53 -3 -117 -2
l-118 3 -31 85 c-18 47 -36 97 -42 113 l-10 27 -214 0 -213 0 -39 -115 -39
-115 -119 0 c-111 0 -118 1 -109 18 8 14 214 592 358 1000 l36 102 131 0 131
0 29 -82z m1164 -115 c96 -269 322 -912 322 -918 0 -3 -54 -5 -119 -5 l-120 0
-38 115 -37 115 -216 0 -216 0 -37 -115 -38 -115 -114 0 -114 0 18 53 c11 28
96 275 190 547 94 272 173 501 176 508 3 9 40 12 138 12 l134 0 71 -197z
m1672 -28 l0 -225 235 0 235 0 0 225 0 225 115 0 115 0 0 -560 0 -560 -115 0
-115 0 0 230 0 230 -235 0 -235 0 0 -230 0 -230 -120 0 -120 0 0 560 0 560
120 0 120 0 0 -225z m-6080 -435 c-23 -27 -44 -50 -47 -50 -3 0 14 23 37 50
23 28 44 50 47 50 3 0 -14 -22 -37 -50z m-703 4 c-3 -3 -12 -4 -19 -1 -8 3 -5
6 6 6 11 1 17 -2 13 -5z"/>
<path d="M1308 5073 c12 -2 30 -2 40 0 9 3 -1 5 -23 4 -22 0 -30 -2 -17 -4z"/>
<path d="M5585 5444 c-3 -20 -33 -111 -66 -202 -32 -91 -59 -171 -59 -178 0
-11 30 -14 145 -14 80 0 145 2 145 4 0 2 -31 93 -70 204 -38 110 -70 205 -70
211 0 27 -18 7 -25 -25z"/>
<path d="M6645 5273 c-39 -113 -71 -210 -73 -214 -2 -5 64 -9 147 -9 83 0 151
2 151 5 0 10 -143 410 -149 417 -3 4 -38 -86 -76 -199z"/>
</g>
</svg>
